<svg xmlns="http://www.w3.org/2000/svg" xmlns:xlink="http://www.w3.org/1999/xlink" viewBox="0 0 25 25"><defs><linearGradient id="b" x1="12.997" x2="12.997" y1="7.783" y2="19.345" gradientTransform="rotate(45 12.5 11.918)" gradientUnits="userSpaceOnUse"><stop offset="0" stop-color="#0058ff"/><stop offset="1" stop-color="#030cff"/></linearGradient><linearGradient id="a" x1="5.495" x2="8.766" y1="16.357" y2="16.357" gradientTransform="rotate(45 12.5 11.918)" gradientUnits="userSpaceOnUse"><stop offset="0" stop-color="#f5c749"/><stop offset="1" stop-color="#ffa300"/></linearGradient><linearGradient id="c" x1="17.229" x2="20.499" y1="16.357" y2="16.357" xlink:href="#a"/><linearGradient id="d" x1="10.807" x2="15.187" y1="8.776" y2="8.776" xlink:href="#a"/><linearGradient id="e" x1="12.4" x2="14.851" y1="20.336" y2="20.336" xlink:href="#a"/><linearGradient id="f" x1="11.174" x2="13.626" y1="20.336" y2="20.336" xlink:href="#a"/><linearGradient id="g" x1="11.174" x2="14.821" y1="20.336" y2="20.336" xlink:href="#b"/></defs><g style="isolation:isolate"><path fill="url(#b)" d="M10.264,18.925,6.2,14.856a2.9,2.9,0,0,1,0-4.107L9.184,7.76A10.17,10.17,0,0,1,16.6,4.784h0a3.713,3.713,0,0,1,3.625,3.544l0,.055a10.169,10.169,0,0,1-2.968,7.65l-2.892,2.892A2.9,2.9,0,0,1,10.264,18.925Z"/><path fill="url(#a)" d="M7.172,9.773,7.647,9.3a4.438,4.438,0,0,0-3.793,1.361c-1.055,1.02-1.009,2.5.087,2.8l1.013.272a.628.628,0,0,0,.8-.639A4.466,4.466,0,0,1,7.172,9.773Z"/><path fill="url(#c)" d="M15.823,17.473l-.476.476a4.472,4.472,0,0,1-3.317,1.422.627.627,0,0,0-.639.8l.273,1.013c.295,1.1,1.778,1.143,2.8.087A4.432,4.432,0,0,0,15.823,17.473Z"/><circle cx="15.073" cy="10.048" r="2.19" fill="url(#d)"/><path style="mix-blend-mode:soft-light" fill="url(#e)" d="M6.324,19.685h0A7.936,7.936,0,0,1,7.4,16.878h0c.035-.058.107-.083.139-.05l1.639,1.638c.033.033.007.105-.05.139h0A7.92,7.92,0,0,1,6.324,19.685Z"/><path style="mix-blend-mode:soft-light" fill="url(#f)" d="M5.457,18.818h0a7.92,7.92,0,0,1,1.08-2.807h0c.034-.057.106-.083.139-.05L8.314,17.6c.033.032.008.1-.05.139h0A7.936,7.936,0,0,1,5.457,18.818Z"/><path style="mix-blend-mode:overlay" fill="url(#g)" d="M5.879,19.241h0a7.066,7.066,0,0,1,.659-3.229h0a.1.1,0,0,1,.161-.028l2.437,2.438a.1.1,0,0,1-.028.16h0A7.066,7.066,0,0,1,5.879,19.241Z"/></g></svg>