<?xml version="1.0" encoding="iso-8859-1"?>
<!-- Generator: Adobe Illustrator 19.0.0, SVG Export Plug-In . SVG Version: 6.00 Build 0)  -->
<!-- License: CC0. Made by SVG Repo: https://www.svgrepo.com/svg/187782/saturn -->
<svg version="1.1" id="Layer_1" xmlns="http://www.w3.org/2000/svg" xmlns:xlink="http://www.w3.org/1999/xlink" x="0px" y="0px"
	 viewBox="0 0 512 512" style="enable-background:new 0 0 512 512;" xml:space="preserve">
<circle style="fill:#D8D9DD;" cx="255.983" cy="262.716" r="226.171"/>
<path style="fill:#B7B9C0;" d="M255.988,36.543c124.909,0,226.167,101.26,226.167,226.168S380.896,488.878,255.988,488.878
	C255.988,308.989,255.988,162.156,255.988,36.543z"/>
<circle style="fill:#9B9DA6;" cx="340.903" cy="158.678" r="29.345"/>
<g>
	<circle style="fill:#B7B9C0;" cx="115.422" cy="245.312" r="29.345"/>
	<path style="fill:#B7B9C0;" d="M185.015,129.331c38.434,0,69.589-31.157,69.589-69.589c0-8.109-1.392-15.892-3.942-23.129
		c-49.328,1.14-94.745,18.079-131.406,45.946C128.704,109.783,154.575,129.331,185.015,129.331z"/>
</g>
<path style="fill:#9B9DA6;" d="M452.096,256.213c-51.783,0-93.763,41.979-93.763,93.763c0,35.115,19.308,65.716,47.882,81.782
	c46.583-41.427,75.939-101.805,75.939-169.047l0,0C482.155,262.183,462.607,256.213,452.096,256.213z"/>
<path style="fill:#B7B9C0;" d="M255.989,336.39c-8.62-7.656-19.963-12.313-32.399-12.313c-26.962,0-48.817,21.857-48.817,48.817
	c0,26.962,21.857,48.817,48.817,48.817c12.436,0,23.779-4.657,32.399-12.313c10.069-8.943,16.42-21.979,16.42-36.504
	C272.408,358.368,266.058,345.333,255.989,336.39z"/>
<path style="fill:#9B9DA6;" d="M255.989,336.39v73.009c10.069-8.943,16.42-21.979,16.42-36.504
	C272.408,358.368,266.058,345.333,255.989,336.39z"/>
<path style="fill:#61A2EF;" d="M121.938,437.811c-64.276,43.362-85.138,41.268-88.341,40.538
	c-1.792-5.718,2.349-30.657,38.124-84.529c-7.107-9.97-13.421-20.541-18.858-31.622c-50.6,72.402-64.659,118.225-42.958,139.926
	C16.487,508.705,25.354,512,36.412,512c8.161,0,17.515-1.796,28.022-5.391c18.908-6.469,42.26-18.786,69.406-36.609
	c37.1-24.358,79.084-57.512,122.15-96.254v-45.345C209.044,372.394,162.504,410.444,121.938,437.811z"/>
<path style="fill:#528ACF;" d="M502.073,9.956c-19.626-19.625-54.304-5.007-65.7-0.204c-22.82,9.617-50.561,26.107-82.514,49.028
	c11.097,5.336,21.692,11.549,31.694,18.553c22.411-15.378,42.623-27.28,59.17-34.787c22.536-10.226,31.464-9.321,33.587-8.838
	c0.741,3.399,2.551,24.392-40.551,88.283c-34.515,51.161-86.013,111.825-145.005,170.817
	c-12.218,12.217-24.506,24.106-36.767,35.596v45.345c20.02-18.01,40.272-37.224,60.379-57.329
	c63.36-63.359,117.903-128.182,153.584-182.529c17.823-27.146,30.141-50.498,36.61-69.406
	C515.023,39.743,513.513,21.398,502.073,9.956z"/>
</svg>
