<?xml version="1.0" encoding="utf-8"?>
<!DOCTYPE svg PUBLIC "-//W3C//DTD SVG 1.1//EN" "http://www.w3.org/Graphics/SVG/1.1/DTD/svg11.dtd">

<!-- License: PD. Made by Templarian: https://github.com/Templarian/WindowsIcons -->
<svg width="800px" height="800px" viewBox="0 0 76 76" xmlns="http://www.w3.org/2000/svg" xmlns:xlink="http://www.w3.org/1999/xlink" version="1.1" baseProfile="full" enable-background="new 0 0 76.00 76.00" xml:space="preserve">
	<path fill="#000000" fill-opacity="1" stroke-width="0.2" stroke-linejoin="round" d="M 22,17L 54,17C 56.6233,17 59,19.3767 59,22L 59,54C 59,56.6234 56.6233,59 54,59L 22,59C 19.3766,59 17,56.6234 17,54L 17,22C 17,19.3767 19.3766,17 22,17 Z M 31.8235,49.0833L 34.7146,49.0833L 34.7146,42.5811L 37.3224,38.9606L 41.5112,49.0833L 45.6221,49.0833L 39.5564,35.8572L 45.3592,27.8033L 41.7166,27.8033L 34.7146,37.9954L 34.7146,27.8033L 31.8235,27.8033L 31.8235"/>
</svg>